<svg class="main-svg" xmlns="http://www.w3.org/2000/svg" xmlns:xlink="http://www.w3.org/1999/xlink" width="700" height="500" style="" viewBox="0 0 700 500"><rect x="0" y="0" width="700" height="500" style="fill: rgb(255, 255, 255); fill-opacity: 1;"/><defs id="defs-d52f93"><g class="clips"><clipPath id="clipd52f93xyplot" class="plotclip"><rect width="469" height="335"/></clipPath><clipPath class="axesclip" id="clipd52f93x"><rect x="60" y="0" width="469" height="500"/></clipPath><clipPath class="axesclip" id="clipd52f93y"><rect x="0" y="60" width="700" height="335"/></clipPath><clipPath class="axesclip" id="clipd52f93xy"><rect x="60" y="60" width="469" height="335"/></clipPath></g><g class="gradients"/><g class="patterns"/></defs><g class="bglayer"/><g class="layer-below"><g class="imagelayer"/><g class="shapelayer"/></g><g class="cartesianlayer"><g class="subplot xy"><g class="layer-subplot"><g class="shapelayer"/><g class="imagelayer"/></g><g class="minor-gridlayer"><g class="x"/><g class="y"/></g><g class="gridlayer"><g class="x"/><g class="y"><path class="ygrid crisp" transform="translate(0,344.75)" d="M60,0h469" style="stroke: rgb(235, 240, 248); stroke-opacity: 1; stroke-width: 1px;"/><path class="ygrid crisp" transform="translate(0,294.5)" d="M60,0h469" style="stroke: rgb(235, 240, 248); stroke-opacity: 1; stroke-width: 1px;"/><path class="ygrid crisp" transform="translate(0,244.25)" d="M60,0h469" style="stroke: rgb(235, 240, 248); stroke-opacity: 1; stroke-width: 1px;"/><path class="ygrid crisp" transform="translate(0,194)" d="M60,0h469" style="stroke: rgb(235, 240, 248); stroke-opacity: 1; stroke-width: 1px;"/><path class="ygrid crisp" transform="translate(0,143.75)" d="M60,0h469" style="stroke: rgb(235, 240, 248); stroke-opacity: 1; stroke-width: 1px;"/><path class="ygrid crisp" transform="translate(0,93.5)" d="M60,0h469" style="stroke: rgb(235, 240, 248); stroke-opacity: 1; stroke-width: 1px;"/></g></g><g class="zerolinelayer"/><g class="layer-between"><g class="shapelayer"/><g class="imagelayer"/></g><path class="xlines-below"/><path class="ylines-below"/><g class="overlines-below"/><g class="xaxislayer-below"/><g class="yaxislayer-below"/><g class="overaxes-below"/><g class="overplot"><g class="xy" transform="translate(60,60)" clip-path="url(#clipd52f93xyplot)"><g class="boxlayer mlayer"><g class="trace boxes" style="opacity: 1;"><path class="box" d="M23.92,184.25H69.88M23.92,234.5H69.88V150.75H23.92ZM46.9,234.5V318.25M46.9,150.75V83.75M35.41,318.25H58.39M35.41,83.75H58.39" style="vector-effect: none; stroke-width: 2px; stroke: rgb(31, 119, 180); stroke-opacity: 1; fill: rgb(31, 119, 180); fill-opacity: 0.5;"/><g class="points"/><path class="mean" d="M23.92,194.73H69.88m0,0L46.9,259.34L23.92,194.73L46.9,130.12Z" style="fill: none; vector-effect: non-scaling-stroke; stroke-width: 2; stroke-dasharray: 4px, 2px; stroke: rgb(31, 119, 180); stroke-opacity: 1;"/></g><g class="trace boxes" style="opacity: 1;"><path class="box" d="M117.72,234.5H163.68M117.72,234.5H163.68V234.5H117.72ZM140.7,234.5V234.5M140.7,234.5V234.5M129.21,234.5H152.19M129.21,234.5H152.19" style="vector-effect: none; stroke-width: 2px; stroke: rgb(214, 39, 40); stroke-opacity: 1; fill: rgb(214, 39, 40); fill-opacity: 0.5;"/><g class="points"/><path class="mean" d="M117.72,234.5H163.68m0,0L140.7,234.5L117.72,234.5L140.7,234.5Z" style="fill: none; vector-effect: non-scaling-stroke; stroke-width: 2; stroke-dasharray: 4px, 2px; stroke: rgb(214, 39, 40); stroke-opacity: 1;"/></g><g class="trace boxes" style="opacity: 1;"><path class="box" d="M211.52,184.25H257.48M211.52,184.25H257.48V184.25H211.52ZM234.5,184.25V184.25M234.5,184.25V184.25M223.01,184.25H245.99M223.01,184.25H245.99" style="vector-effect: none; stroke-width: 2px; stroke: rgb(214, 39, 40); stroke-opacity: 1; fill: rgb(214, 39, 40); fill-opacity: 0.5;"/><g class="points"/><path class="mean" d="M211.52,184.25H257.48m0,0L234.5,184.25L211.52,184.25L234.5,184.25Z" style="fill: none; vector-effect: non-scaling-stroke; stroke-width: 2; stroke-dasharray: 4px, 2px; stroke: rgb(214, 39, 40); stroke-opacity: 1;"/></g><g class="trace boxes" style="opacity: 1;"><path class="box" d="M305.32,16.75H351.28M305.32,16.75H351.28V16.75H305.32ZM328.3,16.75V16.75M328.3,16.75V16.75M316.81,16.75H339.79M316.81,16.75H339.79" style="vector-effect: none; stroke-width: 2px; stroke: rgb(214, 39, 40); stroke-opacity: 1; fill: rgb(214, 39, 40); fill-opacity: 0.5;"/><g class="points"/><path class="mean" d="M305.32,16.75H351.28m0,0L328.3,16.75L305.32,16.75L328.3,16.75Z" style="fill: none; vector-effect: non-scaling-stroke; stroke-width: 2; stroke-dasharray: 4px, 2px; stroke: rgb(214, 39, 40); stroke-opacity: 1;"/></g><g class="trace boxes" style="opacity: 1;"><path class="box" d="M399.12,150.75H445.08M399.12,150.75H445.08V150.75H399.12ZM422.1,150.75V150.75M422.1,150.75V150.75M410.61,150.75H433.59M410.61,150.75H433.59" style="vector-effect: none; stroke-width: 2px; stroke: rgb(214, 39, 40); stroke-opacity: 1; fill: rgb(214, 39, 40); fill-opacity: 0.5;"/><g class="points"/><path class="mean" d="M399.12,150.75H445.08m0,0L422.1,150.75L399.12,150.75L422.1,150.75Z" style="fill: none; vector-effect: non-scaling-stroke; stroke-width: 2; stroke-dasharray: 4px, 2px; stroke: rgb(214, 39, 40); stroke-opacity: 1;"/></g></g></g></g><g class="zerolinelayer-above"/><path class="xlines-above crisp" d="M0,0" style="fill: none;"/><path class="ylines-above crisp" d="M0,0" style="fill: none;"/><g class="overlines-above"/><g class="xaxislayer-above"><g class="xtick"><text text-anchor="start" x="0" y="408" transform="translate(106.9,0) rotate(29.999999999999996,0,402)" style="font-family: 'Open Sans', verdana, arial, sans-serif; font-size: 12px; fill: rgb(42, 63, 95); fill-opacity: 1; white-space: pre;">Aletheia</text></g><g class="xtick"><text text-anchor="start" x="0" y="408" transform="translate(200.7,0) rotate(29.999999999999996,0,402)" style="font-family: 'Open Sans', verdana, arial, sans-serif; font-size: 12px; fill: rgb(42, 63, 95); fill-opacity: 1; white-space: pre;">jaccard_keywords</text></g><g class="xtick"><text text-anchor="start" x="0" y="408" transform="translate(294.5,0) rotate(29.999999999999996,0,402)" style="font-family: 'Open Sans', verdana, arial, sans-serif; font-size: 12px; fill: rgb(42, 63, 95); fill-opacity: 1; white-space: pre;">raw_embeddings</text></g><g class="xtick"><text text-anchor="start" x="0" y="408" transform="translate(388.3,0) rotate(29.999999999999996,0,402)" style="font-family: 'Open Sans', verdana, arial, sans-serif; font-size: 12px; fill: rgb(42, 63, 95); fill-opacity: 1; white-space: pre;">unique_accounts</text></g><g class="xtick"><text text-anchor="start" x="0" y="408" transform="translate(482.1,0) rotate(29.999999999999996,0,402)" style="font-family: 'Open Sans', verdana, arial, sans-serif; font-size: 12px; fill: rgb(42, 63, 95); fill-opacity: 1; white-space: pre;">unique_comments</text></g></g><g class="yaxislayer-above"><g class="ytick"><text text-anchor="end" x="59" y="4.199999999999999" transform="translate(0,395)" style="font-family: 'Open Sans', verdana, arial, sans-serif; font-size: 12px; fill: rgb(42, 63, 95); fill-opacity: 1; white-space: pre;">0.3</text></g><g class="ytick"><text text-anchor="end" x="59" y="4.199999999999999" style="font-family: 'Open Sans', verdana, arial, sans-serif; font-size: 12px; fill: rgb(42, 63, 95); fill-opacity: 1; white-space: pre;" transform="translate(0,344.75)">0.4</text></g><g class="ytick"><text text-anchor="end" x="59" y="4.199999999999999" style="font-family: 'Open Sans', verdana, arial, sans-serif; font-size: 12px; fill: rgb(42, 63, 95); fill-opacity: 1; white-space: pre;" transform="translate(0,294.5)">0.5</text></g><g class="ytick"><text text-anchor="end" x="59" y="4.199999999999999" style="font-family: 'Open Sans', verdana, arial, sans-serif; font-size: 12px; fill: rgb(42, 63, 95); fill-opacity: 1; white-space: pre;" transform="translate(0,244.25)">0.6</text></g><g class="ytick"><text text-anchor="end" x="59" y="4.199999999999999" style="font-family: 'Open Sans', verdana, arial, sans-serif; font-size: 12px; fill: rgb(42, 63, 95); fill-opacity: 1; white-space: pre;" transform="translate(0,194)">0.7</text></g><g class="ytick"><text text-anchor="end" x="59" y="4.199999999999999" style="font-family: 'Open Sans', verdana, arial, sans-serif; font-size: 12px; fill: rgb(42, 63, 95); fill-opacity: 1; white-space: pre;" transform="translate(0,143.75)">0.8</text></g><g class="ytick"><text text-anchor="end" x="59" y="4.199999999999999" style="font-family: 'Open Sans', verdana, arial, sans-serif; font-size: 12px; fill: rgb(42, 63, 95); fill-opacity: 1; white-space: pre;" transform="translate(0,93.5)">0.9</text></g></g><g class="overaxes-above"/></g></g><g class="polarlayer"/><g class="smithlayer"/><g class="ternarylayer"/><g class="geolayer"/><g class="funnelarealayer"/><g class="pielayer"/><g class="iciclelayer"/><g class="treemaplayer"/><g class="sunburstlayer"/><g class="glimages"/><defs id="topdefs-d52f93"><g class="clips"/><clipPath id="legendd52f93"><rect width="150" height="105" x="0" y="0"/></clipPath></defs><g class="layer-above"><g class="imagelayer"/><g class="shapelayer"/></g><g class="infolayer"><g class="legend" pointer-events="all" transform="translate(538.38,60)"><rect class="bg" shape-rendering="crispEdges" style="stroke: rgb(68, 68, 68); stroke-opacity: 1; fill: rgb(255, 255, 255); fill-opacity: 1; stroke-width: 0px;" width="150" height="105" x="0" y="0"/><g class="scrollbox" transform="" clip-path="url(#legendd52f93)"><g class="groups"><g class="traces" transform="translate(0,14.5)" style="opacity: 1;"><text class="legendtext" text-anchor="start" x="40" y="4.680000000000001" style="font-family: 'Open Sans', verdana, arial, sans-serif; font-size: 12px; fill: rgb(42, 63, 95); fill-opacity: 1; white-space: pre;">Aletheia</text><g class="layers" style="opacity: 1;"><g class="legendfill"/><g class="legendlines"/><g class="legendsymbols"><g class="legendpoints"><path class="legendbox" d="M6,6H-6V-6H6Z" transform="translate(20,0)" style="stroke-width: 2px; fill: rgb(31, 119, 180); fill-opacity: 0.5; stroke: rgb(31, 119, 180); stroke-opacity: 1;"/></g></g></g><rect class="legendtoggle" x="0" y="-9.5" width="144.21484375" height="19" style="fill: rgb(0, 0, 0); fill-opacity: 0;"/></g><g class="traces" transform="translate(0,33.5)" style="opacity: 1;"><text class="legendtext" text-anchor="start" x="40" y="4.680000000000001" style="font-family: 'Open Sans', verdana, arial, sans-serif; font-size: 12px; fill: rgb(42, 63, 95); fill-opacity: 1; white-space: pre;">jaccard_keywords</text><g class="layers" style="opacity: 1;"><g class="legendfill"/><g class="legendlines"/><g class="legendsymbols"><g class="legendpoints"><path class="legendbox" d="M6,6H-6V-6H6Z" transform="translate(20,0)" style="stroke-width: 2px; fill: rgb(214, 39, 40); fill-opacity: 0.5; stroke: rgb(214, 39, 40); stroke-opacity: 1;"/></g></g></g><rect class="legendtoggle" x="0" y="-9.5" width="144.21484375" height="19" style="fill: rgb(0, 0, 0); fill-opacity: 0;"/></g><g class="traces" transform="translate(0,52.5)" style="opacity: 1;"><text class="legendtext" text-anchor="start" x="40" y="4.680000000000001" style="font-family: 'Open Sans', verdana, arial, sans-serif; font-size: 12px; fill: rgb(42, 63, 95); fill-opacity: 1; white-space: pre;">raw_embeddings</text><g class="layers" style="opacity: 1;"><g class="legendfill"/><g class="legendlines"/><g class="legendsymbols"><g class="legendpoints"><path class="legendbox" d="M6,6H-6V-6H6Z" transform="translate(20,0)" style="stroke-width: 2px; fill: rgb(214, 39, 40); fill-opacity: 0.5; stroke: rgb(214, 39, 40); stroke-opacity: 1;"/></g></g></g><rect class="legendtoggle" x="0" y="-9.5" width="144.21484375" height="19" style="fill: rgb(0, 0, 0); fill-opacity: 0;"/></g><g class="traces" transform="translate(0,71.5)" style="opacity: 1;"><text class="legendtext" text-anchor="start" x="40" y="4.680000000000001" style="font-family: 'Open Sans', verdana, arial, sans-serif; font-size: 12px; fill: rgb(42, 63, 95); fill-opacity: 1; white-space: pre;">unique_accounts</text><g class="layers" style="opacity: 1;"><g class="legendfill"/><g class="legendlines"/><g class="legendsymbols"><g class="legendpoints"><path class="legendbox" d="M6,6H-6V-6H6Z" transform="translate(20,0)" style="stroke-width: 2px; fill: rgb(214, 39, 40); fill-opacity: 0.5; stroke: rgb(214, 39, 40); stroke-opacity: 1;"/></g></g></g><rect class="legendtoggle" x="0" y="-9.5" width="144.21484375" height="19" style="fill: rgb(0, 0, 0); fill-opacity: 0;"/></g><g class="traces" transform="translate(0,90.5)" style="opacity: 1;"><text class="legendtext" text-anchor="start" x="40" y="4.680000000000001" style="font-family: 'Open Sans', verdana, arial, sans-serif; font-size: 12px; fill: rgb(42, 63, 95); fill-opacity: 1; white-space: pre;">unique_comments</text><g class="layers" style="opacity: 1;"><g class="legendfill"/><g class="legendlines"/><g class="legendsymbols"><g class="legendpoints"><path class="legendbox" d="M6,6H-6V-6H6Z" transform="translate(20,0)" style="stroke-width: 2px; fill: rgb(214, 39, 40); fill-opacity: 0.5; stroke: rgb(214, 39, 40); stroke-opacity: 1;"/></g></g></g><rect class="legendtoggle" x="0" y="-9.5" width="144.21484375" height="19" style="fill: rgb(0, 0, 0); fill-opacity: 0;"/></g></g></g><rect class="scrollbar" rx="20" ry="3" width="0" height="0" style="fill: rgb(128, 139, 164); fill-opacity: 1;" x="0" y="0"/></g><g class="g-gtitle"><text class="gtitle" x="350" y="30" text-anchor="middle" dy="0em" style="opacity: 1; font-family: 'Open Sans', verdana, arial, sans-serif; font-size: 17px; fill: rgb(42, 63, 95); fill-opacity: 1; white-space: pre;">Per-thread relative error distribution</text></g><g class="g-xtitle"><text class="xtitle" x="294.5" y="487.067578125" text-anchor="middle" style="opacity: 1; font-family: 'Open Sans', verdana, arial, sans-serif; font-size: 14px; fill: rgb(42, 63, 95); fill-opacity: 1; white-space: pre;">Method</text></g><g class="g-ytitle"><text class="ytitle" transform="rotate(-90,22.678125,227.5)" x="22.678125" y="227.5" text-anchor="middle" style="opacity: 1; font-family: 'Open Sans', verdana, arial, sans-serif; font-size: 14px; fill: rgb(42, 63, 95); fill-opacity: 1; white-space: pre;">Relative error (lower is better)</text></g></g></svg>